<svg width="97" height="37" viewBox="0 0 97 37" fill="none" xmlns="http://www.w3.org/2000/svg">
<path d="M17.1875 8.64L15.3635 35.28C15.3315 35.76 15.1555 36 14.8355 36H12.1955C10.4035 36 9.1235 35.648 8.3555 34.944C7.5875 34.24 7.2035 33.232 7.2035 31.92C7.2035 31.44 7.2195 30.72 7.2515 29.76C7.3155 28.8 7.3955 27.68 7.4915 26.4C7.5875 25.088 7.6835 23.68 7.7795 22.176C7.9075 20.64 8.0355 19.104 8.1635 17.568C8.2915 16 8.4035 14.448 8.4995 12.912C8.6275 11.376 8.7395 9.952 8.8355 8.64H1.1555C0.8035 8.64 0.6275 8.416 0.6275 7.968L0.7715 5.28C0.8035 4.864 0.8675 4.464 0.9635 4.08C1.0915 3.664 1.2835 3.296 1.5395 2.976C1.7955 2.656 2.1155 2.4 2.4995 2.208C2.9155 2.016 3.4115 1.92 3.9875 1.92H25.4435C25.6355 1.92 25.8115 1.968 25.9715 2.064C26.1315 2.16 26.2115 2.336 26.2115 2.592L26.0195 5.424C25.9555 6.384 25.6835 7.168 25.2035 7.776C24.7555 8.352 23.8115 8.64 22.3715 8.64H17.1875ZM40.8939 21.072C40.7019 21.072 40.4779 21.072 40.2219 21.072C39.9979 21.04 39.7739 21.008 39.5499 20.976C39.3259 20.912 39.1339 20.848 38.9739 20.784C38.8139 20.688 38.7339 20.576 38.7339 20.448C38.7339 20.032 38.7499 19.648 38.7819 19.296C38.8139 18.944 38.8299 18.576 38.8299 18.192C38.8299 17.488 38.7339 16.912 38.5419 16.464C38.3499 16.016 37.9659 15.792 37.3899 15.792C36.4939 15.792 35.7419 16.384 35.1339 17.568C34.5579 18.72 34.1899 20.464 34.0299 22.8C33.9659 23.824 33.8699 24.992 33.7419 26.304C33.6459 27.584 33.5499 28.832 33.4539 30.048C33.3579 31.232 33.2779 32.288 33.2139 33.216C33.1499 34.144 33.1179 34.752 33.1179 35.04C33.1179 35.36 33.0059 35.6 32.7819 35.76C32.5579 35.92 32.3179 36 32.0619 36H30.3339C29.3419 36 28.5259 35.904 27.8859 35.712C27.2779 35.488 26.7819 35.184 26.3979 34.8C26.0459 34.416 25.7899 33.952 25.6299 33.408C25.5019 32.832 25.4379 32.176 25.4379 31.44C25.4379 30.96 25.4539 30.288 25.4859 29.424C25.5499 28.528 25.6459 27.312 25.7739 25.776C25.9019 24.208 26.0459 22.24 26.2059 19.872C26.3979 17.472 26.6219 14.512 26.8779 10.992C26.9419 10.064 27.2779 9.6 27.8859 9.6H29.7579C30.6539 9.6 31.4059 9.696 32.0139 9.888C32.6219 10.08 33.1179 10.352 33.5019 10.704C33.8859 11.024 34.1579 11.408 34.3179 11.856C34.5099 12.304 34.6379 12.768 34.7019 13.248C35.0859 12.512 35.5339 11.888 36.0459 11.376C36.5899 10.832 37.1499 10.4 37.7259 10.08C38.3019 9.728 38.8939 9.488 39.5019 9.36C40.1099 9.2 40.6699 9.12 41.1819 9.12C41.7899 9.12 42.3979 9.232 43.0059 9.456C43.6459 9.68 44.2219 10.016 44.7339 10.464C45.2459 10.912 45.6459 11.488 45.9339 12.192C46.2539 12.896 46.4139 13.728 46.4139 14.688C46.4139 15.552 46.2859 16.368 46.0299 17.136C45.7739 17.904 45.4059 18.592 44.9259 19.2C44.4459 19.776 43.8539 20.24 43.1499 20.592C42.4779 20.912 41.7259 21.072 40.8939 21.072ZM59.4466 36.48C58.0386 36.48 56.6306 36.304 55.2226 35.952C53.8466 35.6 52.5986 34.992 51.4786 34.128C50.3906 33.264 49.4946 32.112 48.7906 30.672C48.0866 29.232 47.7346 27.424 47.7346 25.248C47.7346 24.448 47.7986 23.488 47.9266 22.368C48.0546 21.248 48.2946 20.096 48.6466 18.912C49.0306 17.728 49.5426 16.56 50.1826 15.408C50.8546 14.224 51.7186 13.168 52.7746 12.24C53.8306 11.312 55.1106 10.56 56.6146 9.984C58.1186 9.408 59.9106 9.12 61.9906 9.12C63.6546 9.12 65.0626 9.312 66.2146 9.696C67.3666 10.08 68.2946 10.608 68.9986 11.28C69.7026 11.92 70.2146 12.672 70.5346 13.536C70.8546 14.4 71.0146 15.328 71.0146 16.32C71.0146 17.792 70.7106 19.04 70.1026 20.064C69.5266 21.088 68.7586 21.952 67.7986 22.656C66.8706 23.328 65.8306 23.856 64.6786 24.24C63.5266 24.624 62.3906 24.928 61.2706 25.152C60.1506 25.344 59.1106 25.472 58.1506 25.536C57.2226 25.568 56.5026 25.584 55.9906 25.584C55.9906 26.192 56.0706 26.8 56.2306 27.408C56.4226 27.984 56.6946 28.496 57.0466 28.944C57.3986 29.392 57.8626 29.76 58.4386 30.048C59.0146 30.336 59.7186 30.48 60.5506 30.48C61.3826 30.48 62.0226 30.352 62.4706 30.096C62.9506 29.808 63.3346 29.504 63.6226 29.184C63.9106 28.832 64.1506 28.528 64.3426 28.272C64.5666 27.984 64.8546 27.84 65.2066 27.84C65.3666 27.84 65.6386 27.888 66.0226 27.984C66.4386 28.048 66.8546 28.208 67.2706 28.464C67.6866 28.72 68.0546 29.072 68.3746 29.52C68.6946 29.968 68.8546 30.544 68.8546 31.248C68.8546 32.176 68.5666 32.976 67.9906 33.648C67.4146 34.32 66.6626 34.864 65.7346 35.28C64.8386 35.696 63.8306 36 62.7106 36.192C61.5906 36.384 60.5026 36.48 59.4466 36.48ZM60.3586 15.504C59.6546 15.504 59.0466 15.712 58.5346 16.128C58.0546 16.512 57.6386 17.008 57.2866 17.616C56.9666 18.224 56.7106 18.896 56.5186 19.632C56.3586 20.368 56.2306 21.072 56.1346 21.744C58.1186 21.712 59.7186 21.376 60.9346 20.736C62.1826 20.096 62.8066 19.184 62.8066 18C62.8066 17.36 62.5986 16.784 62.1826 16.272C61.7986 15.76 61.1906 15.504 60.3586 15.504ZM96.7055 32.112C96.7055 32.272 96.6255 32.592 96.4655 33.072C96.3055 33.552 96.0495 34.048 95.6975 34.56C95.3455 35.072 94.8975 35.52 94.3535 35.904C93.8415 36.288 93.2175 36.48 92.4815 36.48C91.6175 36.48 90.7535 36.192 89.8895 35.616C89.0575 35.04 88.2255 34.256 87.3935 33.264C86.5615 32.272 85.7135 31.104 84.8495 29.76C84.0175 28.384 83.1695 26.896 82.3055 25.296C82.1775 26.992 82.0495 28.656 81.9215 30.288C81.7935 31.92 81.6655 33.504 81.5375 35.04C81.5055 35.424 81.4255 35.68 81.2975 35.808C81.1695 35.936 80.8975 36 80.4815 36H78.7535C77.7615 36 76.9455 35.904 76.3055 35.712C75.6655 35.488 75.1695 35.184 74.8175 34.8C74.4655 34.416 74.2095 33.936 74.0495 33.36C73.9215 32.752 73.8575 32.064 73.8575 31.296C73.8575 30.912 73.8735 30.512 73.9055 30.096C73.9375 29.68 73.9855 29.088 74.0495 28.32C74.1135 27.552 74.1935 26.544 74.2895 25.296C74.4175 24.048 74.5615 22.4 74.7215 20.352C74.8815 18.304 75.0575 15.792 75.2495 12.816C75.4735 9.808 75.7135 6.16 75.9695 1.872C76.0015 1.168 76.0815 0.751998 76.2095 0.623998C76.3055 0.527999 76.5615 0.48 76.9775 0.48H78.8495C79.8415 0.48 80.6575 0.591999 81.2975 0.815998C81.9375 1.04 82.4495 1.344 82.8335 1.728C83.2175 2.112 83.4735 2.56 83.6015 3.072C83.7615 3.584 83.8415 4.112 83.8415 4.656C83.8415 4.976 83.8095 5.52 83.7455 6.288C83.7135 7.024 83.6655 7.936 83.6015 9.024C83.5375 10.08 83.4415 11.28 83.3135 12.624C83.2175 13.968 83.1215 15.376 83.0255 16.848L90.7055 9.84C90.9935 9.584 91.2495 9.408 91.4735 9.312C91.7295 9.216 91.9215 9.168 92.0495 9.168C92.4015 9.168 92.7855 9.392 93.2015 9.84C93.6175 10.288 94.0015 10.816 94.3535 11.424C94.7375 12 95.0415 12.608 95.2655 13.248C95.5215 13.856 95.6495 14.352 95.6495 14.736C95.6495 15.664 94.8975 16.64 93.3935 17.664C91.9215 18.688 89.6815 19.84 86.6735 21.12C88.0175 22.624 89.2975 24 90.5135 25.248C91.7295 26.496 92.7855 27.6 93.6815 28.56C94.6095 29.52 95.3455 30.304 95.8895 30.912C96.4335 31.52 96.7055 31.92 96.7055 32.112Z" fill="#7AEA9F"/>
</svg>
