<svg xmlns="http://www.w3.org/2000/svg" xmlns:xlink="http://www.w3.org/1999/xlink" width="500" zoomAndPan="magnify" viewBox="0 0 375 374.999991" height="500" preserveAspectRatio="xMidYMid meet" version="1.0"><path fill="#7aea9f" d="M 291.605469 136.1875 C 291.460938 135.925781 291.292969 135.679688 291.097656 135.449219 C 290.90625 135.21875 290.691406 135.011719 290.457031 134.824219 C 290.222656 134.636719 289.972656 134.472656 289.707031 134.332031 C 289.441406 134.195312 289.164062 134.082031 288.878906 133.996094 C 288.589844 133.910156 288.296875 133.855469 287.996094 133.824219 C 287.699219 133.796875 287.402344 133.796875 287.101562 133.828125 C 286.804688 133.859375 286.511719 133.917969 286.222656 134.003906 C 285.9375 134.089844 285.660156 134.203125 285.394531 134.34375 C 285.128906 134.484375 284.882812 134.648438 284.648438 134.839844 C 284.414062 135.027344 284.203125 135.238281 284.011719 135.46875 C 283.820312 135.699219 283.652344 135.945312 283.507812 136.210938 C 283.363281 136.472656 283.246094 136.746094 283.15625 137.03125 C 283.0625 137.320312 283 137.609375 282.96875 137.910156 C 282.933594 138.207031 282.929688 138.507812 282.953125 138.804688 C 282.980469 139.105469 283.03125 139.398438 283.113281 139.6875 C 283.195312 139.976562 283.304688 140.253906 283.441406 140.519531 C 325.960938 218.6875 266.21875 317.832031 177.082031 316.699219 C 175.117188 316.699219 173.152344 316.648438 171.1875 316.550781 C 169.222656 316.449219 167.261719 316.304688 165.304688 316.109375 C 163.347656 315.914062 161.398438 315.671875 159.453125 315.382812 C 157.507812 315.089844 155.574219 314.753906 153.644531 314.367188 C 151.714844 313.984375 149.796875 313.550781 147.890625 313.070312 C 145.984375 312.59375 144.089844 312.066406 142.207031 311.496094 C 140.328125 310.921875 138.460938 310.304688 136.609375 309.640625 C 134.757812 308.976562 132.925781 308.269531 131.109375 307.515625 C 129.292969 306.761719 127.496094 305.964844 125.71875 305.121094 C 123.941406 304.28125 122.1875 303.394531 120.453125 302.46875 C 118.71875 301.539062 117.007812 300.570312 115.320312 299.558594 C 113.636719 298.546875 111.976562 297.496094 110.339844 296.402344 C 108.707031 295.308594 107.097656 294.175781 105.519531 293.003906 C 103.941406 291.832031 102.390625 290.625 100.871094 289.375 C 99.351562 288.128906 97.863281 286.84375 96.40625 285.523438 C 94.949219 284.203125 93.523438 282.847656 92.132812 281.457031 C 90.746094 280.066406 89.390625 278.644531 88.066406 277.1875 C 86.746094 275.730469 85.464844 274.242188 84.214844 272.722656 C 82.96875 271.199219 81.757812 269.652344 80.585938 268.074219 C 79.414062 266.492188 78.28125 264.886719 77.191406 263.25 C 76.097656 261.617188 75.042969 259.957031 74.03125 258.269531 C 73.019531 256.582031 72.050781 254.875 71.125 253.140625 C 70.195312 251.40625 69.3125 249.652344 68.46875 247.875 C 67.628906 246.097656 66.832031 244.300781 66.078125 242.484375 C 65.324219 240.667969 64.613281 238.832031 63.953125 236.980469 C 63.289062 235.132812 62.671875 233.265625 62.097656 231.382812 C 61.527344 229.503906 61 227.609375 60.519531 225.699219 C 60.042969 223.792969 59.609375 221.875 59.222656 219.949219 C 58.839844 218.019531 58.5 216.082031 58.210938 214.136719 C 57.921875 212.191406 57.679688 210.242188 57.484375 208.285156 C 57.289062 206.328125 57.140625 204.367188 57.042969 202.40625 C 56.945312 200.441406 56.894531 198.476562 56.890625 196.507812 C 55.777344 107.375 154.894531 47.628906 233.074219 90.15625 C 233.339844 90.296875 233.621094 90.414062 233.910156 90.5 C 234.203125 90.585938 234.5 90.644531 234.800781 90.671875 C 235.101562 90.703125 235.40625 90.703125 235.707031 90.671875 C 236.007812 90.640625 236.304688 90.578125 236.59375 90.492188 C 236.886719 90.402344 237.164062 90.285156 237.433594 90.140625 C 237.699219 89.996094 237.949219 89.828125 238.183594 89.636719 C 238.417969 89.441406 238.628906 89.226562 238.824219 88.992188 C 239.015625 88.757812 239.179688 88.503906 239.324219 88.238281 C 239.464844 87.96875 239.582031 87.691406 239.667969 87.398438 C 239.753906 87.109375 239.8125 86.8125 239.84375 86.507812 C 239.871094 86.207031 239.871094 85.90625 239.839844 85.601562 C 239.808594 85.300781 239.75 85.003906 239.660156 84.714844 C 239.570312 84.425781 239.453125 84.144531 239.308594 83.878906 C 239.167969 83.613281 238.996094 83.359375 238.804688 83.125 C 238.609375 82.894531 238.398438 82.679688 238.160156 82.488281 C 237.925781 82.296875 237.675781 82.128906 237.40625 81.988281 C 235.242188 80.847656 233.046875 79.769531 230.824219 78.753906 C 228.597656 77.738281 226.347656 76.789062 224.070312 75.898438 C 221.789062 75.011719 219.488281 74.191406 217.164062 73.433594 C 214.835938 72.675781 212.492188 71.984375 210.128906 71.359375 C 207.765625 70.734375 205.382812 70.179688 202.988281 69.691406 C 200.59375 69.199219 198.183594 68.78125 195.765625 68.425781 C 193.34375 68.074219 190.917969 67.789062 188.480469 67.574219 C 186.046875 67.359375 183.605469 67.210938 181.160156 67.136719 C 178.714844 67.058594 176.273438 67.050781 173.828125 67.113281 C 171.382812 67.171875 168.941406 67.304688 166.503906 67.503906 C 164.066406 67.703125 161.636719 67.972656 159.214844 68.308594 C 156.792969 68.648438 154.382812 69.054688 151.984375 69.527344 C 149.585938 70.003906 147.203125 70.542969 144.832031 71.152344 C 142.464844 71.761719 140.117188 72.4375 137.785156 73.179688 C 135.457031 73.921875 133.148438 74.730469 130.863281 75.605469 C 128.582031 76.476562 126.324219 77.414062 124.09375 78.414062 C 121.859375 79.417969 119.660156 80.480469 117.488281 81.605469 C 115.320312 82.734375 113.179688 83.917969 111.078125 85.164062 C 108.972656 86.414062 106.90625 87.71875 104.878906 89.082031 C 102.847656 90.445312 100.859375 91.867188 98.910156 93.34375 C 96.960938 94.820312 95.054688 96.351562 93.191406 97.9375 C 91.332031 99.523438 89.515625 101.160156 87.746094 102.847656 C 85.976562 104.535156 84.253906 106.269531 82.585938 108.054688 C 80.914062 109.839844 79.292969 111.671875 77.726562 113.550781 C 76.160156 115.425781 74.648438 117.347656 73.1875 119.308594 C 71.730469 121.273438 70.328125 123.273438 68.984375 125.316406 C 67.636719 127.359375 66.351562 129.4375 65.125 131.554688 C 63.898438 133.667969 62.730469 135.816406 61.625 138 C 60.519531 140.179688 59.476562 142.390625 58.496094 144.628906 C 57.515625 146.871094 56.601562 149.136719 55.75 151.429688 C 54.898438 153.722656 54.113281 156.035156 53.390625 158.375 C 52.671875 160.710938 52.015625 163.066406 51.429688 165.441406 C 50.84375 167.8125 50.324219 170.203125 49.871094 172.605469 C 49.421875 175.007812 49.039062 177.421875 48.722656 179.847656 C 48.40625 182.273438 48.164062 184.707031 47.984375 187.144531 C 47.808594 189.582031 47.699219 192.027344 47.664062 194.46875 C 47.625 196.914062 47.65625 199.359375 47.753906 201.804688 C 47.855469 204.246094 48.023438 206.683594 48.261719 209.117188 C 48.5 211.550781 48.808594 213.976562 49.183594 216.394531 C 49.558594 218.808594 50.003906 221.214844 50.515625 223.605469 C 51.027344 225.996094 51.605469 228.371094 52.25 230.730469 C 52.898438 233.089844 53.609375 235.425781 54.390625 237.746094 C 55.167969 240.0625 56.011719 242.355469 56.921875 244.625 C 57.832031 246.898438 58.804688 249.140625 59.839844 251.355469 C 60.875 253.570312 61.972656 255.753906 63.132812 257.90625 C 64.292969 260.058594 65.515625 262.175781 66.792969 264.261719 C 68.074219 266.34375 69.414062 268.390625 70.808594 270.398438 C 72.203125 272.40625 73.65625 274.371094 75.164062 276.296875 C 76.671875 278.222656 78.230469 280.105469 79.84375 281.941406 C 81.460938 283.777344 83.125 285.570312 84.839844 287.3125 C 86.554688 289.054688 88.320312 290.746094 90.128906 292.390625 C 91.941406 294.03125 93.796875 295.621094 95.699219 297.160156 C 97.601562 298.699219 99.542969 300.179688 101.53125 301.609375 C 103.515625 303.035156 105.539062 304.40625 107.605469 305.71875 C 109.667969 307.03125 111.765625 308.285156 113.898438 309.476562 C 116.035156 310.671875 118.199219 311.804688 120.398438 312.875 C 122.597656 313.945312 124.824219 314.953125 127.078125 315.898438 C 129.335938 316.84375 131.617188 317.722656 133.921875 318.539062 C 136.226562 319.355469 138.554688 320.101562 140.902344 320.785156 C 143.25 321.46875 145.613281 322.085938 147.996094 322.636719 C 150.378906 323.1875 152.777344 323.667969 155.1875 324.082031 C 157.597656 324.496094 160.015625 324.839844 162.445312 325.117188 C 164.875 325.394531 167.3125 325.601562 169.753906 325.738281 C 172.195312 325.878906 174.640625 325.945312 177.085938 325.945312 C 273.089844 327.144531 337.425781 220.386719 291.605469 136.1875 Z M 291.605469 136.1875 " fill-opacity="1" fill-rule="nonzero"/><path fill="#7aea9f" d="M 177.085938 159.527344 C 181.113281 159.523438 185.035156 160.179688 188.847656 161.492188 C 189.132812 161.589844 189.425781 161.660156 189.726562 161.703125 C 190.027344 161.742188 190.332031 161.753906 190.632812 161.734375 C 190.9375 161.71875 191.234375 161.667969 191.527344 161.59375 C 191.820312 161.515625 192.105469 161.410156 192.378906 161.277344 C 192.648438 161.144531 192.90625 160.984375 193.148438 160.800781 C 193.390625 160.617188 193.613281 160.414062 193.8125 160.1875 C 194.015625 159.957031 194.191406 159.714844 194.34375 159.453125 C 194.496094 159.191406 194.625 158.914062 194.722656 158.628906 C 196.753906 150.449219 182.355469 150.777344 177.085938 150.28125 C 115.765625 152.816406 115.765625 240.207031 177.085938 242.738281 C 178.597656 242.734375 180.109375 242.660156 181.613281 242.507812 C 183.121094 242.359375 184.617188 242.136719 186.101562 241.839844 C 187.582031 241.542969 189.050781 241.175781 190.5 240.734375 C 191.945312 240.292969 193.371094 239.785156 194.765625 239.203125 C 196.164062 238.625 197.53125 237.976562 198.867188 237.261719 C 200.199219 236.550781 201.496094 235.769531 202.753906 234.929688 C 204.011719 234.089844 205.226562 233.1875 206.398438 232.226562 C 207.566406 231.265625 208.6875 230.253906 209.757812 229.183594 C 210.828125 228.113281 211.84375 226.992188 212.804688 225.820312 C 213.761719 224.652344 214.664062 223.4375 215.503906 222.179688 C 216.347656 220.921875 217.125 219.625 217.839844 218.289062 C 218.550781 216.957031 219.199219 215.589844 219.78125 214.191406 C 220.359375 212.792969 220.871094 211.371094 221.308594 209.921875 C 221.75 208.472656 222.117188 207.007812 222.414062 205.523438 C 222.710938 204.039062 222.933594 202.542969 223.085938 201.039062 C 223.234375 199.53125 223.308594 198.023438 223.3125 196.507812 C 222.839844 191.144531 223.152344 176.894531 215.011719 178.917969 C 214.722656 179.015625 214.449219 179.144531 214.1875 179.296875 C 213.925781 179.449219 213.679688 179.625 213.453125 179.828125 C 213.226562 180.027344 213.019531 180.25 212.835938 180.492188 C 212.652344 180.730469 212.492188 180.988281 212.359375 181.261719 C 212.226562 181.535156 212.121094 181.820312 212.042969 182.113281 C 211.96875 182.40625 211.917969 182.703125 211.902344 183.007812 C 211.882812 183.308594 211.894531 183.613281 211.933594 183.914062 C 211.976562 184.214844 212.046875 184.507812 212.144531 184.792969 C 213.441406 188.589844 214.082031 192.496094 214.066406 196.507812 C 212.210938 245.496094 141.957031 245.496094 140.101562 196.507812 C 140.101562 195.296875 140.164062 194.089844 140.285156 192.886719 C 140.402344 191.679688 140.582031 190.484375 140.820312 189.296875 C 141.058594 188.109375 141.351562 186.9375 141.703125 185.777344 C 142.054688 184.621094 142.464844 183.480469 142.929688 182.363281 C 143.394531 181.246094 143.910156 180.152344 144.480469 179.082031 C 145.054688 178.015625 145.675781 176.980469 146.347656 175.972656 C 147.019531 174.964844 147.742188 173.996094 148.511719 173.058594 C 149.277344 172.125 150.089844 171.226562 150.945312 170.371094 C 151.800781 169.515625 152.699219 168.703125 153.632812 167.933594 C 154.570312 167.164062 155.542969 166.445312 156.546875 165.773438 C 157.554688 165.097656 158.59375 164.476562 159.660156 163.90625 C 160.726562 163.335938 161.820312 162.816406 162.9375 162.351562 C 164.058594 161.890625 165.195312 161.480469 166.355469 161.128906 C 167.511719 160.777344 168.683594 160.480469 169.871094 160.246094 C 171.058594 160.007812 172.257812 159.828125 173.460938 159.707031 C 174.664062 159.589844 175.875 159.527344 177.085938 159.527344 Z M 177.085938 159.527344 " fill-opacity="1" fill-rule="nonzero"/><path fill="#7aea9f" d="M 221.347656 125.941406 C 221.492188 125.675781 221.613281 125.398438 221.707031 125.109375 C 221.796875 124.820312 221.863281 124.527344 221.894531 124.222656 C 221.929688 123.921875 221.933594 123.621094 221.910156 123.316406 C 221.886719 123.015625 221.832031 122.71875 221.746094 122.425781 C 221.664062 122.132812 221.550781 121.855469 221.414062 121.585938 C 221.273438 121.3125 221.109375 121.058594 220.921875 120.824219 C 220.734375 120.585938 220.523438 120.367188 220.289062 120.171875 C 220.058594 119.976562 219.808594 119.804688 219.542969 119.65625 C 213.046875 116.0625 206.203125 113.332031 199.011719 111.472656 C 191.820312 109.613281 184.511719 108.679688 177.085938 108.675781 C 60.578125 113.492188 60.582031 279.527344 177.085938 284.339844 C 178.984375 284.34375 180.882812 284.28125 182.777344 284.160156 C 184.675781 284.039062 186.5625 283.855469 188.449219 283.609375 C 190.332031 283.363281 192.207031 283.058594 194.070312 282.691406 C 195.933594 282.328125 197.785156 281.898438 199.621094 281.414062 C 201.457031 280.925781 203.277344 280.382812 205.078125 279.777344 C 206.878906 279.171875 208.65625 278.507812 210.414062 277.789062 C 212.171875 277.070312 213.90625 276.292969 215.613281 275.460938 C 217.320312 274.625 219 273.738281 220.648438 272.796875 C 222.300781 271.855469 223.917969 270.863281 225.503906 269.816406 C 227.089844 268.769531 228.636719 267.671875 230.152344 266.523438 C 231.667969 265.375 233.140625 264.179688 234.578125 262.9375 C 236.015625 261.695312 237.410156 260.40625 238.761719 259.070312 C 240.117188 257.738281 241.421875 256.363281 242.6875 254.945312 C 243.949219 253.523438 245.167969 252.066406 246.335938 250.570312 C 247.503906 249.070312 248.625 247.539062 249.691406 245.96875 C 250.761719 244.398438 251.78125 242.792969 252.746094 241.15625 C 253.710938 239.519531 254.621094 237.855469 255.476562 236.160156 C 256.335938 234.464844 257.136719 232.742188 257.882812 230.996094 C 258.625 229.246094 259.316406 227.476562 259.945312 225.683594 C 260.574219 223.894531 261.148438 222.082031 261.660156 220.253906 C 262.171875 218.421875 262.625 216.578125 263.019531 214.722656 C 263.410156 212.863281 263.742188 210.992188 264.015625 209.113281 C 264.285156 207.230469 264.496094 205.34375 264.644531 203.449219 C 264.796875 201.558594 264.882812 199.660156 264.910156 197.761719 C 264.933594 195.859375 264.898438 193.960938 264.800781 192.066406 C 264.703125 190.167969 264.546875 188.277344 264.324219 186.390625 C 264.105469 184.503906 263.824219 182.625 263.480469 180.753906 C 263.140625 178.886719 262.738281 177.03125 262.277344 175.1875 C 261.8125 173.347656 261.292969 171.519531 260.710938 169.710938 C 260.128906 167.902344 259.488281 166.113281 258.792969 164.347656 C 258.09375 162.582031 257.339844 160.835938 256.53125 159.117188 C 255.722656 157.402344 254.855469 155.710938 253.9375 154.046875 C 253.789062 153.78125 253.617188 153.53125 253.421875 153.300781 C 253.226562 153.066406 253.007812 152.855469 252.773438 152.664062 C 252.535156 152.472656 252.28125 152.308594 252.011719 152.167969 C 251.742188 152.03125 251.460938 151.917969 251.167969 151.832031 C 250.875 151.75 250.578125 151.695312 250.273438 151.667969 C 249.96875 151.640625 249.667969 151.648438 249.363281 151.679688 C 249.0625 151.714844 248.765625 151.777344 248.476562 151.871094 C 248.1875 151.964844 247.910156 152.082031 247.644531 152.230469 C 247.375 152.378906 247.128906 152.550781 246.894531 152.746094 C 246.664062 152.945312 246.453125 153.164062 246.265625 153.402344 C 246.074219 153.640625 245.910156 153.894531 245.773438 154.164062 C 245.632812 154.433594 245.523438 154.714844 245.4375 155.007812 C 245.355469 155.300781 245.300781 155.601562 245.277344 155.902344 C 245.253906 156.207031 245.257812 156.507812 245.292969 156.8125 C 245.328125 157.113281 245.394531 157.410156 245.488281 157.699219 C 245.582031 157.988281 245.703125 158.265625 245.851562 158.53125 C 275.152344 209.347656 235.789062 276.113281 177.082031 275.09375 C 175.796875 275.09375 174.511719 275.0625 173.226562 274.996094 C 171.945312 274.933594 170.664062 274.835938 169.382812 274.710938 C 168.105469 274.582031 166.828125 274.421875 165.554688 274.234375 C 164.285156 274.042969 163.019531 273.824219 161.757812 273.570312 C 160.496094 273.320312 159.242188 273.035156 157.996094 272.722656 C 156.75 272.410156 155.511719 272.066406 154.28125 271.691406 C 153.050781 271.316406 151.832031 270.914062 150.621094 270.480469 C 149.410156 270.046875 148.210938 269.582031 147.023438 269.089844 C 145.835938 268.597656 144.660156 268.074219 143.5 267.527344 C 142.335938 266.976562 141.1875 266.398438 140.054688 265.789062 C 138.921875 265.183594 137.804688 264.550781 136.699219 263.886719 C 135.597656 263.226562 134.511719 262.539062 133.445312 261.824219 C 132.375 261.109375 131.324219 260.371094 130.292969 259.601562 C 129.257812 258.835938 128.246094 258.046875 127.253906 257.230469 C 126.257812 256.414062 125.285156 255.574219 124.332031 254.710938 C 123.378906 253.847656 122.449219 252.960938 121.539062 252.050781 C 120.628906 251.144531 119.746094 250.210938 118.882812 249.257812 C 118.015625 248.308594 117.175781 247.332031 116.363281 246.339844 C 115.546875 245.347656 114.753906 244.332031 113.988281 243.300781 C 113.222656 242.269531 112.484375 241.21875 111.769531 240.148438 C 111.054688 239.078125 110.367188 237.992188 109.703125 236.890625 C 109.042969 235.789062 108.410156 234.671875 107.800781 233.535156 C 107.195312 232.402344 106.617188 231.253906 106.066406 230.09375 C 105.515625 228.929688 104.996094 227.757812 104.503906 226.570312 C 104.007812 225.382812 103.546875 224.183594 103.113281 222.972656 C 102.679688 221.761719 102.273438 220.542969 101.902344 219.3125 C 101.527344 218.082031 101.183594 216.84375 100.871094 215.597656 C 100.554688 214.347656 100.273438 213.09375 100.023438 211.835938 C 99.769531 210.574219 99.546875 209.308594 99.359375 208.035156 C 99.167969 206.765625 99.011719 205.488281 98.882812 204.210938 C 98.757812 202.929688 98.660156 201.648438 98.597656 200.363281 C 98.53125 199.078125 98.5 197.792969 98.496094 196.507812 C 97.488281 137.804688 164.238281 98.4375 215.0625 127.746094 C 215.328125 127.890625 215.605469 128.011719 215.894531 128.105469 C 216.183594 128.199219 216.480469 128.261719 216.78125 128.296875 C 217.082031 128.332031 217.382812 128.335938 217.6875 128.3125 C 217.988281 128.285156 218.285156 128.230469 218.578125 128.148438 C 218.871094 128.0625 219.152344 127.953125 219.421875 127.8125 C 219.691406 127.675781 219.945312 127.511719 220.183594 127.320312 C 220.417969 127.132812 220.636719 126.921875 220.832031 126.6875 C 221.027344 126.457031 221.199219 126.207031 221.347656 125.941406 Z M 221.347656 125.941406 " fill-opacity="1" fill-rule="nonzero"/><path fill="#7aea9f" d="M 298.015625 108.261719 L 264.363281 141.914062 C 263.464844 142.796875 262.386719 143.246094 261.125 143.253906 L 260.757812 143.253906 L 238.613281 141.542969 L 180.367188 199.792969 C 180.148438 200 179.914062 200.183594 179.660156 200.34375 C 179.40625 200.507812 179.140625 200.644531 178.863281 200.753906 C 178.582031 200.863281 178.296875 200.945312 178 201 C 177.703125 201.054688 177.40625 201.082031 177.105469 201.078125 C 176.804688 201.074219 176.507812 201.042969 176.214844 200.980469 C 175.917969 200.917969 175.632812 200.832031 175.355469 200.714844 C 175.082031 200.597656 174.816406 200.457031 174.566406 200.289062 C 174.316406 200.121094 174.085938 199.929688 173.875 199.71875 C 173.664062 199.503906 173.472656 199.273438 173.304688 199.023438 C 173.136719 198.777344 172.996094 198.511719 172.878906 198.234375 C 172.761719 197.957031 172.671875 197.671875 172.613281 197.378906 C 172.550781 197.085938 172.519531 196.789062 172.515625 196.488281 C 172.511719 196.1875 172.539062 195.886719 172.59375 195.59375 C 172.648438 195.296875 172.730469 195.011719 172.839844 194.730469 C 172.949219 194.449219 173.085938 194.183594 173.246094 193.933594 C 173.410156 193.679688 173.59375 193.445312 173.800781 193.226562 L 232.050781 134.980469 L 230.339844 112.835938 C 230.292969 112.167969 230.390625 111.519531 230.621094 110.890625 C 230.855469 110.261719 231.207031 109.707031 231.679688 109.230469 L 265.332031 75.578125 C 265.648438 75.269531 266 75.011719 266.390625 74.804688 C 266.777344 74.597656 267.1875 74.445312 267.617188 74.355469 C 268.050781 74.261719 268.484375 74.234375 268.925781 74.265625 C 269.363281 74.296875 269.789062 74.386719 270.203125 74.539062 C 270.617188 74.691406 271 74.898438 271.355469 75.160156 C 271.710938 75.421875 272.023438 75.726562 272.292969 76.078125 C 272.558594 76.425781 272.773438 76.804688 272.9375 77.214844 C 273.097656 77.625 273.199219 78.050781 273.238281 78.488281 L 274.761719 98.828125 L 295.105469 100.355469 C 295.542969 100.394531 295.96875 100.496094 296.378906 100.65625 C 296.789062 100.820312 297.167969 101.03125 297.515625 101.300781 C 297.867188 101.570312 298.171875 101.882812 298.433594 102.238281 C 298.695312 102.589844 298.902344 102.976562 299.054688 103.390625 C 299.207031 103.804688 299.296875 104.230469 299.328125 104.667969 C 299.359375 105.109375 299.332031 105.542969 299.238281 105.972656 C 299.148438 106.40625 298.996094 106.816406 298.789062 107.203125 C 298.582031 107.59375 298.324219 107.945312 298.015625 108.261719 Z M 298.015625 108.261719 " fill-opacity="1" fill-rule="nonzero"/></svg>