<svg width="193" height="37" viewBox="0 0 193 37" fill="none" xmlns="http://www.w3.org/2000/svg">
<path d="M17 8.64L15.176 35.28C15.144 35.76 14.968 36 14.648 36H12.008C10.216 36 8.936 35.648 8.168 34.944C7.4 34.24 7.016 33.232 7.016 31.92C7.016 31.44 7.032 30.72 7.064 29.76C7.128 28.8 7.208 27.68 7.304 26.4C7.4 25.088 7.496 23.68 7.592 22.176C7.72 20.64 7.848 19.104 7.976 17.568C8.104 16 8.216 14.448 8.312 12.912C8.44 11.376 8.552 9.952 8.648 8.64H0.968C0.616 8.64 0.44 8.416 0.44 7.968L0.584 5.28C0.616 4.864 0.68 4.464 0.776 4.08C0.904 3.664 1.096 3.296 1.352 2.976C1.608 2.656 1.928 2.4 2.312 2.208C2.728 2.016 3.224 1.92 3.8 1.92H25.256C25.448 1.92 25.624 1.968 25.784 2.064C25.944 2.16 26.024 2.336 26.024 2.592L25.832 5.424C25.768 6.384 25.496 7.168 25.016 7.776C24.568 8.352 23.624 8.64 22.184 8.64H17ZM40.7064 21.072C40.5144 21.072 40.2904 21.072 40.0344 21.072C39.8104 21.04 39.5864 21.008 39.3624 20.976C39.1384 20.912 38.9464 20.848 38.7864 20.784C38.6264 20.688 38.5464 20.576 38.5464 20.448C38.5464 20.032 38.5624 19.648 38.5944 19.296C38.6264 18.944 38.6424 18.576 38.6424 18.192C38.6424 17.488 38.5464 16.912 38.3544 16.464C38.1624 16.016 37.7784 15.792 37.2024 15.792C36.3064 15.792 35.5544 16.384 34.9464 17.568C34.3704 18.72 34.0024 20.464 33.8424 22.8C33.7784 23.824 33.6824 24.992 33.5544 26.304C33.4584 27.584 33.3624 28.832 33.2664 30.048C33.1704 31.232 33.0904 32.288 33.0264 33.216C32.9624 34.144 32.9304 34.752 32.9304 35.04C32.9304 35.36 32.8184 35.6 32.5944 35.76C32.3704 35.92 32.1304 36 31.8744 36H30.1464C29.1544 36 28.3384 35.904 27.6984 35.712C27.0904 35.488 26.5944 35.184 26.2104 34.8C25.8584 34.416 25.6024 33.952 25.4424 33.408C25.3144 32.832 25.2504 32.176 25.2504 31.44C25.2504 30.96 25.2664 30.288 25.2984 29.424C25.3624 28.528 25.4584 27.312 25.5864 25.776C25.7144 24.208 25.8584 22.24 26.0184 19.872C26.2104 17.472 26.4344 14.512 26.6904 10.992C26.7544 10.064 27.0904 9.6 27.6984 9.6H29.5704C30.4664 9.6 31.2184 9.696 31.8264 9.888C32.4344 10.08 32.9304 10.352 33.3144 10.704C33.6984 11.024 33.9704 11.408 34.1304 11.856C34.3224 12.304 34.4504 12.768 34.5144 13.248C34.8984 12.512 35.3464 11.888 35.8584 11.376C36.4024 10.832 36.9624 10.4 37.5384 10.08C38.1144 9.728 38.7064 9.488 39.3144 9.36C39.9224 9.2 40.4824 9.12 40.9944 9.12C41.6024 9.12 42.2104 9.232 42.8184 9.456C43.4584 9.68 44.0344 10.016 44.5464 10.464C45.0584 10.912 45.4584 11.488 45.7464 12.192C46.0664 12.896 46.2264 13.728 46.2264 14.688C46.2264 15.552 46.0984 16.368 45.8424 17.136C45.5864 17.904 45.2184 18.592 44.7384 19.2C44.2584 19.776 43.6664 20.24 42.9624 20.592C42.2904 20.912 41.5384 21.072 40.7064 21.072ZM59.2591 36.48C57.8511 36.48 56.4431 36.304 55.0351 35.952C53.6591 35.6 52.4111 34.992 51.2911 34.128C50.2031 33.264 49.3071 32.112 48.6031 30.672C47.8991 29.232 47.5471 27.424 47.5471 25.248C47.5471 24.448 47.6111 23.488 47.7391 22.368C47.8671 21.248 48.1071 20.096 48.4591 18.912C48.8431 17.728 49.3551 16.56 49.9951 15.408C50.6671 14.224 51.5311 13.168 52.5871 12.24C53.6431 11.312 54.9231 10.56 56.4271 9.984C57.9311 9.408 59.7231 9.12 61.8031 9.12C63.4671 9.12 64.8751 9.312 66.0271 9.696C67.1791 10.08 68.1071 10.608 68.8111 11.28C69.5151 11.92 70.0271 12.672 70.3471 13.536C70.6671 14.4 70.8271 15.328 70.8271 16.32C70.8271 17.792 70.5231 19.04 69.9151 20.064C69.3391 21.088 68.5711 21.952 67.6111 22.656C66.6831 23.328 65.6431 23.856 64.4911 24.24C63.3391 24.624 62.2031 24.928 61.0831 25.152C59.9631 25.344 58.9231 25.472 57.9631 25.536C57.0351 25.568 56.3151 25.584 55.8031 25.584C55.8031 26.192 55.8831 26.8 56.0431 27.408C56.2351 27.984 56.5071 28.496 56.8591 28.944C57.2111 29.392 57.6751 29.76 58.2511 30.048C58.8271 30.336 59.5311 30.48 60.3631 30.48C61.1951 30.48 61.8351 30.352 62.2831 30.096C62.7631 29.808 63.1471 29.504 63.4351 29.184C63.7231 28.832 63.9631 28.528 64.1551 28.272C64.3791 27.984 64.6671 27.84 65.0191 27.84C65.1791 27.84 65.4511 27.888 65.8351 27.984C66.2511 28.048 66.6671 28.208 67.0831 28.464C67.4991 28.72 67.8671 29.072 68.1871 29.52C68.5071 29.968 68.6671 30.544 68.6671 31.248C68.6671 32.176 68.3791 32.976 67.8031 33.648C67.2271 34.32 66.4751 34.864 65.5471 35.28C64.6511 35.696 63.6431 36 62.5231 36.192C61.4031 36.384 60.3151 36.48 59.2591 36.48ZM60.1711 15.504C59.4671 15.504 58.8591 15.712 58.3471 16.128C57.8671 16.512 57.4511 17.008 57.0991 17.616C56.7791 18.224 56.5231 18.896 56.3311 19.632C56.1711 20.368 56.0431 21.072 55.9471 21.744C57.9311 21.712 59.5311 21.376 60.7471 20.736C61.9951 20.096 62.6191 19.184 62.6191 18C62.6191 17.36 62.4111 16.784 61.9951 16.272C61.6111 15.76 61.0031 15.504 60.1711 15.504ZM96.518 32.112C96.518 32.272 96.438 32.592 96.278 33.072C96.118 33.552 95.862 34.048 95.51 34.56C95.158 35.072 94.71 35.52 94.166 35.904C93.654 36.288 93.03 36.48 92.294 36.48C91.43 36.48 90.566 36.192 89.702 35.616C88.87 35.04 88.038 34.256 87.206 33.264C86.374 32.272 85.526 31.104 84.662 29.76C83.83 28.384 82.982 26.896 82.118 25.296C81.99 26.992 81.862 28.656 81.734 30.288C81.606 31.92 81.478 33.504 81.35 35.04C81.318 35.424 81.238 35.68 81.11 35.808C80.982 35.936 80.71 36 80.294 36H78.566C77.574 36 76.758 35.904 76.118 35.712C75.478 35.488 74.982 35.184 74.63 34.8C74.278 34.416 74.022 33.936 73.862 33.36C73.734 32.752 73.67 32.064 73.67 31.296C73.67 30.912 73.686 30.512 73.718 30.096C73.75 29.68 73.798 29.088 73.862 28.32C73.926 27.552 74.006 26.544 74.102 25.296C74.23 24.048 74.374 22.4 74.534 20.352C74.694 18.304 74.87 15.792 75.062 12.816C75.286 9.808 75.526 6.16 75.782 1.872C75.814 1.168 75.894 0.751998 76.022 0.623998C76.118 0.527999 76.374 0.48 76.79 0.48H78.662C79.654 0.48 80.47 0.591999 81.11 0.815998C81.75 1.04 82.262 1.344 82.646 1.728C83.03 2.112 83.286 2.56 83.414 3.072C83.574 3.584 83.654 4.112 83.654 4.656C83.654 4.976 83.622 5.52 83.558 6.288C83.526 7.024 83.478 7.936 83.414 9.024C83.35 10.08 83.254 11.28 83.126 12.624C83.03 13.968 82.934 15.376 82.838 16.848L90.518 9.84C90.806 9.584 91.062 9.408 91.286 9.312C91.542 9.216 91.734 9.168 91.862 9.168C92.214 9.168 92.598 9.392 93.014 9.84C93.43 10.288 93.814 10.816 94.166 11.424C94.55 12 94.854 12.608 95.078 13.248C95.334 13.856 95.462 14.352 95.462 14.736C95.462 15.664 94.71 16.64 93.206 17.664C91.734 18.688 89.494 19.84 86.486 21.12C87.83 22.624 89.11 24 90.326 25.248C91.542 26.496 92.598 27.6 93.494 28.56C94.422 29.52 95.158 30.304 95.702 30.912C96.246 31.52 96.518 31.92 96.518 32.112ZM122.393 32.112C122.393 32.272 122.313 32.592 122.153 33.072C121.993 33.552 121.737 34.048 121.385 34.56C121.033 35.072 120.585 35.52 120.041 35.904C119.529 36.288 118.905 36.48 118.169 36.48C117.305 36.48 116.441 36.192 115.577 35.616C114.745 35.04 113.913 34.256 113.081 33.264C112.249 32.272 111.401 31.104 110.537 29.76C109.705 28.384 108.857 26.896 107.993 25.296C107.865 26.992 107.737 28.656 107.609 30.288C107.481 31.92 107.353 33.504 107.225 35.04C107.193 35.424 107.113 35.68 106.985 35.808C106.857 35.936 106.585 36 106.169 36H104.441C103.449 36 102.633 35.904 101.993 35.712C101.353 35.488 100.857 35.184 100.505 34.8C100.153 34.416 99.897 33.936 99.737 33.36C99.609 32.752 99.545 32.064 99.545 31.296C99.545 30.912 99.561 30.512 99.593 30.096C99.625 29.68 99.673 29.088 99.737 28.32C99.801 27.552 99.881 26.544 99.977 25.296C100.105 24.048 100.249 22.4 100.409 20.352C100.569 18.304 100.745 15.792 100.937 12.816C101.161 9.808 101.401 6.16 101.657 1.872C101.689 1.168 101.769 0.751998 101.897 0.623998C101.993 0.527999 102.249 0.48 102.665 0.48H104.537C105.529 0.48 106.345 0.591999 106.985 0.815998C107.625 1.04 108.137 1.344 108.521 1.728C108.905 2.112 109.161 2.56 109.289 3.072C109.449 3.584 109.529 4.112 109.529 4.656C109.529 4.976 109.497 5.52 109.433 6.288C109.401 7.024 109.353 7.936 109.289 9.024C109.225 10.08 109.129 11.28 109.001 12.624C108.905 13.968 108.809 15.376 108.713 16.848L116.393 9.84C116.681 9.584 116.937 9.408 117.161 9.312C117.417 9.216 117.609 9.168 117.737 9.168C118.089 9.168 118.473 9.392 118.889 9.84C119.305 10.288 119.689 10.816 120.041 11.424C120.425 12 120.729 12.608 120.953 13.248C121.209 13.856 121.337 14.352 121.337 14.736C121.337 15.664 120.585 16.64 119.081 17.664C117.609 18.688 115.369 19.84 112.361 21.12C113.705 22.624 114.985 24 116.201 25.248C117.417 26.496 118.473 27.6 119.369 28.56C120.297 29.52 121.033 30.304 121.577 30.912C122.121 31.52 122.393 31.92 122.393 32.112ZM135.947 36.48C134.539 36.48 133.131 36.304 131.723 35.952C130.347 35.6 129.099 34.992 127.979 34.128C126.891 33.264 125.995 32.112 125.291 30.672C124.587 29.232 124.235 27.424 124.235 25.248C124.235 24.448 124.299 23.488 124.427 22.368C124.555 21.248 124.795 20.096 125.147 18.912C125.531 17.728 126.043 16.56 126.683 15.408C127.355 14.224 128.219 13.168 129.275 12.24C130.331 11.312 131.611 10.56 133.115 9.984C134.619 9.408 136.411 9.12 138.491 9.12C140.155 9.12 141.563 9.312 142.715 9.696C143.867 10.08 144.795 10.608 145.499 11.28C146.203 11.92 146.715 12.672 147.035 13.536C147.355 14.4 147.515 15.328 147.515 16.32C147.515 17.792 147.211 19.04 146.603 20.064C146.027 21.088 145.259 21.952 144.299 22.656C143.371 23.328 142.331 23.856 141.179 24.24C140.027 24.624 138.891 24.928 137.771 25.152C136.651 25.344 135.611 25.472 134.651 25.536C133.723 25.568 133.003 25.584 132.491 25.584C132.491 26.192 132.571 26.8 132.731 27.408C132.923 27.984 133.195 28.496 133.547 28.944C133.899 29.392 134.363 29.76 134.939 30.048C135.515 30.336 136.219 30.48 137.051 30.48C137.883 30.48 138.523 30.352 138.971 30.096C139.451 29.808 139.835 29.504 140.123 29.184C140.411 28.832 140.651 28.528 140.843 28.272C141.067 27.984 141.355 27.84 141.707 27.84C141.867 27.84 142.139 27.888 142.523 27.984C142.939 28.048 143.355 28.208 143.771 28.464C144.187 28.72 144.555 29.072 144.875 29.52C145.195 29.968 145.355 30.544 145.355 31.248C145.355 32.176 145.067 32.976 144.491 33.648C143.915 34.32 143.163 34.864 142.235 35.28C141.339 35.696 140.331 36 139.211 36.192C138.091 36.384 137.003 36.48 135.947 36.48ZM136.859 15.504C136.155 15.504 135.547 15.712 135.035 16.128C134.555 16.512 134.139 17.008 133.787 17.616C133.467 18.224 133.211 18.896 133.019 19.632C132.859 20.368 132.731 21.072 132.635 21.744C134.619 21.712 136.219 21.376 137.435 20.736C138.683 20.096 139.307 19.184 139.307 18C139.307 17.36 139.099 16.784 138.683 16.272C138.299 15.76 137.691 15.504 136.859 15.504ZM165.91 21.072C165.718 21.072 165.494 21.072 165.238 21.072C165.014 21.04 164.79 21.008 164.566 20.976C164.342 20.912 164.15 20.848 163.99 20.784C163.83 20.688 163.75 20.576 163.75 20.448C163.75 20.032 163.766 19.648 163.798 19.296C163.83 18.944 163.846 18.576 163.846 18.192C163.846 17.488 163.75 16.912 163.558 16.464C163.366 16.016 162.982 15.792 162.406 15.792C161.51 15.792 160.758 16.384 160.15 17.568C159.574 18.72 159.206 20.464 159.046 22.8C158.982 23.824 158.886 24.992 158.758 26.304C158.662 27.584 158.566 28.832 158.47 30.048C158.374 31.232 158.294 32.288 158.23 33.216C158.166 34.144 158.134 34.752 158.134 35.04C158.134 35.36 158.022 35.6 157.798 35.76C157.574 35.92 157.334 36 157.078 36H155.35C154.358 36 153.542 35.904 152.902 35.712C152.294 35.488 151.798 35.184 151.414 34.8C151.062 34.416 150.806 33.952 150.646 33.408C150.518 32.832 150.454 32.176 150.454 31.44C150.454 30.96 150.47 30.288 150.502 29.424C150.566 28.528 150.662 27.312 150.79 25.776C150.918 24.208 151.062 22.24 151.222 19.872C151.414 17.472 151.638 14.512 151.894 10.992C151.958 10.064 152.294 9.6 152.902 9.6H154.773C155.67 9.6 156.422 9.696 157.03 9.888C157.638 10.08 158.134 10.352 158.518 10.704C158.902 11.024 159.174 11.408 159.334 11.856C159.526 12.304 159.654 12.768 159.718 13.248C160.102 12.512 160.55 11.888 161.062 11.376C161.606 10.832 162.166 10.4 162.742 10.08C163.318 9.728 163.91 9.488 164.518 9.36C165.126 9.2 165.686 9.12 166.198 9.12C166.806 9.12 167.414 9.232 168.022 9.456C168.662 9.68 169.238 10.016 169.75 10.464C170.262 10.912 170.662 11.488 170.95 12.192C171.27 12.896 171.43 13.728 171.43 14.688C171.43 15.552 171.302 16.368 171.046 17.136C170.79 17.904 170.422 18.592 169.942 19.2C169.462 19.776 168.87 20.24 168.166 20.592C167.494 20.912 166.742 21.072 165.91 21.072ZM184.558 9.12C187.278 9.12 189.278 9.664 190.558 10.752C191.838 11.808 192.478 13.168 192.478 14.832C192.478 16.24 192.03 17.312 191.134 18.048C190.27 18.784 189.006 19.152 187.342 19.152C186.894 19.152 186.59 19.104 186.43 19.008C186.27 18.912 186.19 18.736 186.19 18.48C186.19 18.192 186.158 17.872 186.094 17.52C186.062 17.136 185.95 16.784 185.758 16.464C185.598 16.112 185.326 15.824 184.942 15.6C184.59 15.376 184.078 15.264 183.406 15.264C182.51 15.264 181.79 15.488 181.246 15.936C180.702 16.352 180.43 16.88 180.43 17.52C180.43 18.192 180.702 18.736 181.246 19.152C181.822 19.536 182.526 19.904 183.358 20.256C184.222 20.608 185.15 20.976 186.142 21.36C187.134 21.712 188.046 22.192 188.878 22.8C189.742 23.408 190.446 24.176 190.99 25.104C191.566 26 191.854 27.168 191.854 28.608C191.854 30.912 191.038 32.8 189.406 34.272C187.774 35.744 185.326 36.48 182.062 36.48C181.166 36.48 180.126 36.4 178.942 36.24C177.79 36.112 176.686 35.904 175.63 35.616C174.574 35.296 173.678 34.88 172.942 34.368C172.238 33.856 171.886 33.216 171.886 32.448C171.886 32.16 171.934 31.808 172.03 31.392C172.158 30.976 172.334 30.576 172.558 30.192C172.814 29.808 173.102 29.488 173.422 29.232C173.774 28.944 174.19 28.8 174.67 28.8C175.054 28.8 175.406 28.896 175.726 29.088C176.046 29.28 176.414 29.488 176.83 29.712C177.278 29.904 177.822 30.096 178.462 30.288C179.102 30.48 179.95 30.576 181.006 30.576C181.806 30.576 182.51 30.48 183.118 30.288C183.758 30.096 184.078 29.664 184.078 28.992C184.078 28.384 183.822 27.904 183.31 27.552C182.798 27.168 182.142 26.816 181.342 26.496C180.574 26.176 179.726 25.84 178.798 25.488C177.902 25.104 177.054 24.608 176.254 24C175.486 23.392 174.846 22.624 174.334 21.696C173.822 20.736 173.566 19.504 173.566 18C173.566 16.368 173.886 14.992 174.526 13.872C175.198 12.72 176.046 11.792 177.07 11.088C178.126 10.384 179.31 9.888 180.622 9.6C181.934 9.28 183.246 9.12 184.558 9.12Z" fill="#004015"/>
</svg>
