<svg xmlns="http://www.w3.org/2000/svg" xmlns:xlink="http://www.w3.org/1999/xlink" width="500" zoomAndPan="magnify" viewBox="0 0 375 374.999991" height="500" preserveAspectRatio="xMidYMid meet" version="1.0"><defs><clipPath id="18d7cbc0d0"><path d="M 102.515625 37.5 L 272.324219 37.5 L 272.324219 337.5 L 102.515625 337.5 Z M 102.515625 37.5 " clip-rule="nonzero"/></clipPath><clipPath id="a15e563b6a"><path d="M 50.695312 82.144531 L 324.289062 82.144531 L 324.289062 293 L 50.695312 293 Z M 50.695312 82.144531 " clip-rule="nonzero"/></clipPath></defs><g clip-path="url(#18d7cbc0d0)"><path fill="#7aea9f" d="M 187.492188 37.5 C 211.59375 37.5 233.105469 54.832031 248.40625 82.847656 C 263.09375 109.753906 272.183594 146.765625 272.183594 187.507812 C 272.183594 228.25 263.09375 265.261719 248.40625 292.167969 C 233.105469 320.1875 211.59375 337.515625 187.492188 337.515625 L 187.492188 325.269531 C 206.78125 325.269531 224.554688 310.386719 237.691406 286.332031 C 251.4375 261.160156 259.9375 226.230469 259.9375 187.507812 C 259.9375 148.785156 251.4375 113.855469 237.691406 88.683594 C 224.554688 64.625 206.78125 49.746094 187.492188 49.746094 Z M 187.492188 337.515625 C 163.390625 337.515625 141.878906 320.1875 126.578125 292.167969 C 111.886719 265.261719 102.800781 228.25 102.800781 187.507812 C 102.800781 146.765625 111.886719 109.753906 126.578125 82.847656 C 141.878906 54.832031 163.390625 37.5 187.492188 37.5 L 187.492188 49.746094 C 168.203125 49.746094 150.429688 64.625 137.292969 88.683594 C 123.546875 113.855469 115.046875 148.785156 115.046875 187.507812 C 115.046875 226.230469 123.546875 261.160156 137.292969 286.332031 C 150.429688 310.386719 168.203125 325.269531 187.492188 325.269531 L 187.492188 337.515625 " fill-opacity="1" fill-rule="nonzero"/></g><g clip-path="url(#a15e563b6a)"><path fill="#7aea9f" d="M 187.492188 94.476562 C 201.324219 99.433594 215.40625 105.902344 229.292969 113.882812 C 229.664062 114.050781 230.011719 114.253906 230.335938 114.484375 C 265.414062 134.839844 292.738281 161.074219 308.59375 187.085938 C 325.203125 214.332031 329.445312 241.625 317.386719 262.511719 C 317.3125 262.644531 317.230469 262.773438 317.144531 262.898438 C 304.984375 283.503906 279.359375 293.34375 247.683594 292.589844 C 229.257812 292.152344 208.664062 288.121094 187.492188 280.535156 L 187.492188 267.550781 C 208.839844 275.660156 229.597656 279.957031 247.96875 280.390625 C 275.25 281.042969 296.945312 273.1875 306.65625 256.675781 C 306.707031 256.582031 306.757812 256.484375 306.816406 256.386719 C 316.449219 239.695312 312.441406 216.867188 298.167969 193.445312 C 283.21875 168.925781 257.230469 144.089844 223.746094 124.753906 L 223.738281 124.75 C 211.679688 117.789062 199.492188 112.027344 187.492188 107.46875 Z M 57.679688 112.390625 C 69.773438 91.597656 95.484375 81.667969 127.304688 82.425781 C 145.726562 82.863281 166.320312 86.894531 187.492188 94.476562 L 187.492188 107.46875 C 166.144531 99.355469 145.386719 95.058594 127.015625 94.621094 C 99.824219 93.976562 78.183594 101.777344 68.421875 118.171875 C 68.28125 118.480469 68.113281 118.769531 67.914062 119.054688 C 58.601562 135.710938 62.664062 158.351562 76.816406 181.570312 C 91.714844 206.011719 117.617188 230.78125 150.996094 250.105469 C 151.082031 250.148438 151.160156 250.195312 151.242188 250.242188 L 151.246094 250.242188 L 151.238281 250.246094 L 151.265625 250.261719 L 151.261719 250.273438 C 163.316406 257.230469 175.5 262.992188 187.492188 267.550781 L 187.492188 280.535156 C 173.660156 275.582031 159.574219 269.109375 145.691406 261.132812 C 145.363281 260.984375 145.054688 260.808594 144.765625 260.613281 C 109.644531 240.257812 82.273438 213.992188 66.386719 187.929688 C 49.789062 160.691406 45.542969 133.40625 57.597656 112.527344 C 57.625 112.480469 57.652344 112.433594 57.679688 112.390625 " fill-opacity="1" fill-rule="nonzero"/><path fill="#7aea9f" d="M 306.558594 118.171875 C 296.800781 101.777344 275.160156 93.976562 247.96875 94.621094 C 229.597656 95.058594 208.84375 99.355469 187.492188 107.46875 L 187.492188 94.476562 C 208.664062 86.894531 229.257812 82.863281 247.683594 82.425781 C 279.5 81.667969 305.210938 91.597656 317.304688 112.390625 C 317.332031 112.433594 317.359375 112.480469 317.386719 112.527344 C 329.441406 133.40625 325.199219 160.691406 308.59375 187.929688 C 292.710938 213.992188 265.339844 240.257812 230.21875 260.613281 C 229.929688 260.808594 229.621094 260.984375 229.292969 261.132812 C 215.40625 269.109375 201.324219 275.582031 187.492188 280.535156 L 187.492188 267.550781 C 199.488281 262.992188 211.667969 257.230469 223.722656 250.273438 L 223.714844 250.261719 L 223.746094 250.246094 L 223.738281 250.242188 L 223.742188 250.242188 C 223.820312 250.195312 223.902344 250.148438 223.988281 250.105469 C 257.367188 230.78125 283.269531 206.011719 298.167969 181.570312 C 312.320312 158.351562 316.382812 135.710938 307.066406 119.054688 C 306.871094 118.769531 306.703125 118.480469 306.558594 118.171875 Z M 187.492188 107.46875 C 175.492188 112.027344 163.308594 117.789062 151.246094 124.75 L 151.238281 124.753906 C 117.753906 144.089844 91.765625 168.925781 76.816406 193.445312 C 62.542969 216.867188 58.53125 239.695312 68.167969 256.386719 C 68.222656 256.484375 68.277344 256.582031 68.328125 256.675781 C 78.039062 273.1875 99.734375 281.042969 127.015625 280.390625 C 145.386719 279.957031 166.144531 275.660156 187.492188 267.550781 L 187.492188 280.535156 C 166.320312 288.121094 145.726562 292.152344 127.304688 292.589844 C 95.621094 293.34375 70 283.503906 57.839844 262.898438 C 57.753906 262.773438 57.675781 262.644531 57.597656 262.511719 C 45.539062 241.625 49.78125 214.332031 66.390625 187.085938 C 82.246094 161.074219 109.570312 134.839844 144.648438 114.484375 C 144.96875 114.253906 145.320312 114.050781 145.691406 113.882812 C 159.574219 105.902344 173.660156 99.433594 187.492188 94.476562 L 187.492188 107.46875 " fill-opacity="1" fill-rule="nonzero"/></g><path fill="#7aea9f" d="M 187.535156 161.175781 C 189.019531 159.246094 190.617188 157.574219 192.394531 156.152344 C 196.878906 152.5625 202.105469 150.769531 208.925781 150.769531 C 216.527344 150.769531 223.414062 153.855469 228.398438 158.84375 C 233.390625 163.832031 236.476562 170.71875 236.476562 178.324219 C 236.476562 195.691406 225.84375 203.714844 211.691406 214.394531 C 205.558594 219.023438 198.664062 224.222656 191.820312 231.070312 C 190.625 232.265625 189.058594 232.863281 187.492188 232.863281 L 187.492188 218.277344 C 193.359375 212.910156 199.101562 208.578125 204.328125 204.636719 C 215.691406 196.058594 224.230469 189.617188 224.230469 178.324219 C 224.230469 174.097656 222.515625 170.269531 219.746094 167.503906 C 216.972656 164.730469 213.148438 163.019531 208.925781 163.019531 C 205.023438 163.019531 202.210938 163.902344 200 165.671875 C 197.445312 167.71875 195.25 171.082031 192.949219 175.6875 C 192.382812 176.828125 191.449219 177.804688 190.21875 178.421875 C 189.339844 178.855469 188.410156 179.066406 187.492188 179.0625 L 187.492188 161.117188 Z M 187.492188 232.863281 C 185.925781 232.863281 184.359375 232.265625 183.164062 231.070312 C 176.316406 224.222656 169.425781 219.023438 163.292969 214.394531 C 149.140625 203.714844 138.507812 195.691406 138.507812 178.324219 C 138.507812 170.71875 141.59375 163.832031 146.582031 158.84375 C 151.570312 153.855469 158.457031 150.769531 166.0625 150.769531 C 176.0625 150.769531 182.320312 154.21875 187.492188 161.117188 L 187.492188 179.0625 C 185.257812 179.0625 183.105469 177.824219 182.039062 175.691406 C 177.8125 167.242188 173.773438 163.019531 166.0625 163.019531 C 161.835938 163.019531 158.007812 164.730469 155.242188 167.503906 C 152.46875 170.269531 150.757812 174.097656 150.757812 178.324219 C 150.757812 189.617188 159.292969 196.058594 170.65625 204.636719 C 175.882812 208.578125 181.625 212.910156 187.492188 218.277344 L 187.492188 232.863281 " fill-opacity="1" fill-rule="nonzero"/></svg>