<svg xmlns="http://www.w3.org/2000/svg" xmlns:xlink="http://www.w3.org/1999/xlink" width="500" zoomAndPan="magnify" viewBox="0 0 375 374.999991" height="500" preserveAspectRatio="xMidYMid meet" version="1.0"><defs><clipPath id="4a87d1c202"><path d="M 38 51 L 337 51 L 337 331.875 L 38 331.875 Z M 38 51 " clip-rule="nonzero"/></clipPath></defs><g clip-path="url(#4a87d1c202)"><path fill="#7aea9f" d="M 225.609375 225.0625 C 230.648438 224.910156 234.78125 226.355469 238.660156 230.257812 L 327.621094 319.675781 C 328.792969 320.878906 328.988281 322.265625 328.761719 323.230469 C 328.550781 324.214844 328.371094 324.160156 328.296875 324.160156 L 47.632812 324.160156 C 47.128906 324.160156 47.085938 324.101562 46.875 323.929688 C 46.683594 323.734375 46.417969 323.332031 46.257812 322.710938 C 45.949219 321.496094 46.492188 319.929688 46.660156 319.757812 L 94.597656 274.101562 C 100.445312 268.523438 104.132812 265.222656 107.765625 263.410156 C 111.394531 261.574219 115.351562 260.878906 122.648438 260.878906 L 141.859375 260.878906 C 153.441406 260.878906 160.375 258.621094 169.796875 253.171875 L 198.015625 236.878906 C 201.011719 236.742188 204.019531 235.71875 206.378906 233.558594 C 207.191406 232.804688 207.863281 231.859375 208.464844 230.855469 C 214.722656 227.242188 220.613281 225.214844 225.609375 225.0625 Z M 155.820312 175.367188 C 157.480469 175.347656 159.855469 175.890625 162.460938 177.261719 C 174.296875 183.460938 178.949219 187.359375 181.09375 191.550781 C 183.585938 196.355469 184.429688 205.972656 184.429688 223.382812 C 184.238281 227.535156 185.824219 231.222656 188.347656 233.558594 L 188.367188 233.558594 L 165.953125 246.492188 C 157.789062 251.203125 153.292969 252.863281 144.390625 253.117188 C 145.070312 251.722656 145.566406 250.199219 145.742188 248.519531 C 148.96875 224.234375 150.394531 205.640625 151.570312 181.839844 C 151.804688 177.152344 152.980469 176.105469 154.449219 175.601562 C 154.816406 175.46875 155.277344 175.390625 155.820312 175.367188 Z M 191.960938 81.253906 C 191.882812 84.039062 191.304688 88.191406 190.785156 90.949219 C 188.425781 91.953125 185.996094 92.6875 183.949219 93.363281 C 185.800781 89.308594 187.078125 84.519531 188 79.332031 C 188.445312 76.796875 192.054688 77.585938 191.960938 81.253906 Z M 198.792969 75.640625 L 207.886719 75.925781 C 205.316406 80.371094 202.441406 83.632812 199.238281 86.121094 C 199.390625 84.59375 199.566406 83.011719 199.644531 81.738281 C 199.796875 79.480469 199.488281 77.433594 198.792969 75.640625 Z M 221.921875 78.515625 C 215.164062 97.585938 203.621094 105.410156 189.296875 109.730469 C 182.675781 111.734375 176.382812 112.179688 168.757812 112.992188 C 166.769531 113.203125 165.261719 114.921875 165.320312 116.933594 L 166.535156 157.1875 C 166.59375 158.613281 167.425781 159.886719 168.699219 160.523438 C 183.140625 167.492188 192.582031 174.152344 197.230469 183.226562 C 202.675781 193.769531 202.253906 205.792969 202.578125 223.59375 C 202.621094 225.429688 201.925781 226.796875 201.152344 227.839844 C 200.441406 228.847656 198.820312 229.214844 197.351562 229.214844 C 195.882812 229.214844 194.496094 228.691406 193.585938 227.839844 C 192.179688 226.164062 192.160156 225.121094 192.117188 223.59375 C 191.832031 205.851562 191.8125 195.503906 187.949219 188.015625 C 184.632812 181.585938 178.296875 176.875 166.0625 170.445312 C 161.484375 168.054688 156.558594 166.699219 151.90625 168.339844 C 147.273438 169.980469 144.207031 174.964844 143.894531 181.449219 C 142.71875 205.171875 141.3125 223.457031 138.125 247.574219 C 138.105469 247.628906 138.105469 247.667969 138.089844 247.707031 C 137.878906 249.855469 137.140625 250.816406 136.117188 251.527344 C 135.113281 252.226562 133.644531 252.550781 132.199219 252.378906 C 130.773438 252.183594 129.441406 251.472656 128.644531 250.542969 C 127.46875 248.769531 127.53125 247.839844 127.742188 246.21875 C 135.195312 190.65625 136.078125 146.195312 131.328125 110.445312 C 130.902344 107.238281 133.28125 104.496094 136.503906 104.496094 C 153.628906 104.496094 173.722656 104.496094 186.277344 100.695312 C 198.109375 97.125 209.671875 90.832031 217.105469 74.84375 C 219.085938 70.597656 223.3125 74.558594 221.921875 78.515625 Z M 265.074219 61.390625 L 265.074219 69.882812 L 227.410156 68.859375 C 226.480469 67.722656 225.34375 66.78125 224.046875 66.144531 C 220.402344 64.363281 215.652344 65.214844 212.441406 68.382812 L 183.777344 67.453125 C 180.667969 67.359375 181.167969 63.402344 183.601562 63.339844 Z M 268.855469 51 C 267.195312 51.042969 265.75 52.125 265.246094 53.683594 L 183.847656 55.621094 C 177.730469 55.773438 173 60.675781 173.082031 65.542969 C 173.15625 69.828125 176.554688 73.859375 181.457031 74.882812 C 180.921875 75.925781 180.527344 77.066406 180.355469 78.324219 C 179.453125 85.25 176.632812 91.429688 173.984375 95.269531 C 163.25 96.605469 149.019531 96.816406 136.492188 96.816406 C 128.769531 96.816406 123.191406 104.902344 123.691406 111.449219 C 127.398438 160.621094 126.261719 206.121094 120.105469 245.101562 C 119.621094 248.050781 120.125 250.871094 121.28125 253.207031 C 114.210938 253.308594 109.003906 254.15625 104.316406 256.511719 C 99.316406 259.019531 95.199219 262.902344 89.292969 268.519531 L 41.355469 314.179688 C 38.367188 317.039062 37.902344 320.996094 38.792969 324.546875 C 39.238281 326.339844 40.082031 328.117188 41.589844 329.527344 C 43.078125 330.957031 45.296875 331.882812 47.636719 331.882812 L 328.300781 331.882812 C 332.488281 331.882812 335.464844 328.445312 336.273438 324.972656 C 337.0625 321.476562 336.160156 317.347656 333.105469 314.257812 L 244.144531 224.8125 C 238.878906 219.523438 232.214844 217.144531 225.386719 217.378906 C 220.421875 217.53125 215.363281 218.964844 210.289062 221.261719 C 210.308594 204.71875 210.308594 191.765625 204.089844 179.699219 C 198.53125 168.890625 187.929688 161.707031 174.1875 154.832031 L 173.121094 120.082031 C 179.246094 119.464844 185.191406 119.019531 191.5625 117.089844 C 207.371094 112.300781 221.640625 102.242188 229.1875 81.121094 C 229.734375 79.59375 229.960938 78.113281 229.976562 76.679688 L 265.171875 77.609375 C 266.332031 82.164062 273.070312 81.082031 272.765625 76.410156 L 272.765625 54.902344 C 272.789062 52.742188 271.019531 50.964844 268.855469 51 Z M 268.855469 51 " fill-opacity="1" fill-rule="nonzero"/></g><path fill="#7aea9f" d="M 152.867188 54.902344 C 160.648438 57.855469 164.394531 66.273438 161.417969 73.878906 C 158.429688 81.484375 149.78125 85.269531 142 82.316406 C 134.257812 79.363281 130.511719 70.925781 133.488281 63.355469 C 136.472656 55.730469 145.101562 51.949219 152.867188 54.902344 Z M 155.589844 47.703125 C 143.984375 43.285156 130.816406 49.019531 126.28125 60.542969 L 126.320312 60.542969 C 121.804688 72.03125 127.628906 85.097656 139.253906 89.519531 C 150.894531 93.921875 164.058594 88.210938 168.597656 76.679688 C 173.097656 65.171875 167.25 52.125 155.589844 47.703125 Z M 155.589844 47.703125 " fill-opacity="1" fill-rule="evenodd"/></svg>